<svg width="15" height="11" viewBox="0 0 15 11" fill="none" xmlns="http://www.w3.org/2000/svg">
<path d="M0 9.60856C0.00133717 9.97806 0.151009 10.332 0.416228 10.5928C0.681447 10.8536 1.04059 11 1.415 11H13.585C13.9594 11 14.3186 10.8536 14.5838 10.5928C14.849 10.332 14.9987 9.97806 15 9.60856V0.930664H0V9.60856ZM7.075 7.868C7.11993 7.3985 7.26002 6.94273 7.48695 6.52772C7.71388 6.11271 8.02302 5.74693 8.396 5.45215C9.09541 4.72799 9.27835 4.50356 9.27835 3.939C9.27835 3.51009 9.16616 3.17495 8.67192 3.17495C8.17769 3.17495 8.02709 3.53204 8.00384 4.10258H7.11138C7.08791 3.8893 7.11245 3.67353 7.18324 3.47068C7.25404 3.26783 7.36934 3.0829 7.52092 2.92912C7.6725 2.77533 7.85662 2.65648 8.06013 2.58104C8.26364 2.50559 8.48151 2.47541 8.6982 2.49267C8.90216 2.46456 9.10993 2.4829 9.30559 2.54627C9.50126 2.60965 9.67963 2.7164 9.82704 2.85831C9.97446 3.00023 10.087 3.17355 10.156 3.36502C10.2251 3.55649 10.2488 3.76101 10.2254 3.96293C10.2254 4.63222 10.0232 4.98734 9.26016 5.72446C8.78529 6.12828 8.40375 6.62794 8.1413 7.18973H10.382L10.2567 7.91886H7.075V7.868ZM4.67657 2.96747C5.047 2.91623 5.39635 2.76661 5.68728 2.53458H6.30281V7.92087H5.38104V3.53205C5.14897 3.58539 4.91179 3.61414 4.67354 3.61783L4.67657 2.96747Z" fill="#030303"/>
</svg>
